<mxfile host="app.diagrams.net" modified="2024-02-04T18:41:32.396Z" agent="Mozilla/5.0 (Windows NT 10.0; Win64; x64) AppleWebKit/537.36 (KHTML, like Gecko) Chrome/121.0.0.0 Safari/537.36" version="23.1.1" etag="T8yYBiXjRbWwRiPVt0Ae" type="github">
  <diagram name="페이지-1" id="jm1CNTdMh0qAJzOoib6W">
    <mxGraphModel>
      <root>
        <mxCell id="0" />
        <mxCell id="1" parent="0" />
      </root>
    </mxGraphModel>
  </diagram>
</mxfile>
